<?xml version="1.0" encoding="UTF-8"?> <!-- Generator: Adobe Illustrator 16.2.0, SVG Export Plug-In . SVG Version: 6.00 Build 0) --> <svg xmlns="http://www.w3.org/2000/svg" xmlns:xlink="http://www.w3.org/1999/xlink" id="Layer_1" x="0px" y="0px" width="1133.86px" height="1190.55px" viewBox="0 0 1133.86 1190.55" xml:space="preserve"> <g> <path fill="#24A4A4" d="M522.82,780.435c0,41.369-16.694,77.554-50.042,108.575c-33.369,31.021-72.737,46.532-118.096,46.532 c-71.268,0-126.004-23.582-164.24-70.768c-38.226-47.165-57.329-112.453-57.329-195.823c0-77.554,32.869-155.741,98.636-234.6 c65.767-78.839,144.974-138.627,237.65-179.343l42.757,68.829c-73.329,35.552-130.749,76.921-172.271,124.086 c-41.532,47.185-65.543,104.381-72.022,171.586h54.502c40.215,0,72.982,4.531,98.269,13.573 c25.296,9.062,45.746,21.664,61.318,37.807c14.909,15.512,25.449,32.645,31.613,51.38 C519.728,741.026,522.82,760.415,522.82,780.435z M1000.745,780.435c0,41.369-16.695,77.554-50.042,108.575 c-33.369,31.021-72.737,46.532-118.096,46.532c-71.27,0-126.005-23.582-164.24-70.768 c-38.227-47.165-57.329-112.453-57.329-195.823c0-77.554,32.868-155.741,98.635-234.6 c65.77-78.839,144.975-138.627,237.652-179.343l42.757,68.829c-73.33,35.552-130.749,76.921-172.272,124.086 c-41.53,47.185-65.543,104.381-72.021,171.586h54.501c40.216,0,72.973,4.531,98.27,13.573 c25.296,9.062,45.746,21.664,61.318,37.807c14.908,15.512,25.448,32.645,31.612,51.38 C997.653,741.026,1000.745,760.415,1000.745,780.435z"></path> </g> </svg> 