<?xml version="1.0" encoding="UTF-8"?> <!-- Generator: Adobe Illustrator 16.2.0, SVG Export Plug-In . SVG Version: 6.00 Build 0) --> <svg xmlns="http://www.w3.org/2000/svg" xmlns:xlink="http://www.w3.org/1999/xlink" id="Layer_1" x="0px" y="0px" width="252.281px" height="345.83px" viewBox="0 0 252.281 345.83" xml:space="preserve"> <g> <path fill="#AAAAAA" d="M187.514,98.967c-11.867-10.619-27.181-15.981-43.049-15.099c-15.896,0.883-30.497,7.901-41.113,19.762 c-21.917,24.491-19.822,62.248,4.668,84.164c11.358,10.161,25.559,15.158,39.718,15.158c16.378,0,32.689-6.691,44.445-19.826 C214.1,158.64,212.004,120.883,187.514,98.967z M186.561,178.101c-19.138,21.392-52.117,23.221-73.512,4.072 c-21.394-19.144-23.221-52.122-4.08-73.513c9.274-10.362,22.03-16.494,35.912-17.263c0.988-0.053,1.969-0.08,2.949-0.08 c12.818,0,25.025,4.653,34.654,13.269C203.876,123.731,205.705,156.709,186.561,178.101z"></path> <path fill="#AAAAAA" d="M115.668,114.543c-1.39,1.554-1.257,3.937,0.294,5.324c0.722,0.644,1.619,0.96,2.514,0.96 c1.036,0,2.066-0.422,2.811-1.257c13.132-14.674,35.748-15.926,50.421-2.798c1.551,1.39,3.933,1.257,5.324-0.294 c1.389-1.554,1.255-3.937-0.296-5.324C158.963,95.251,131.568,96.774,115.668,114.543z"></path> <path fill="#AAAAAA" d="M227.953,138.523c-1.279-21.349-10.795-40.917-26.793-55.108s-36.549-21.28-57.916-20.021 c-21.346,1.28-40.917,10.795-55.105,26.793c-28.445,32.07-26.398,80.803,3.985,110.419l-13.005,14.836l-4.17-3.696 c-1.556-1.384-3.929-1.242-5.312,0.308l-45.25,50.565c-0.669,0.743-1.011,1.726-0.956,2.723c0.056,0.998,0.505,1.937,1.25,2.603 l14.216,12.725c0.722,0.643,1.619,0.959,2.514,0.959c1.036,0,2.066-0.424,2.811-1.256l45.311-50.633 c0.668-0.747,1.013-1.73,0.955-2.733c-0.058-0.998-0.513-1.938-1.262-2.603l-4.462-3.957l12.997-14.826 c14.287,11.557,31.826,17.758,50.168,17.758c1.627,0,3.264-0.05,4.898-0.148c21.346-1.281,40.917-10.797,55.107-26.795 S229.232,159.872,227.953,138.523z M41.115,272.533l-8.595-7.692l40.233-44.959l8.633,7.654L41.115,272.533z M202.291,191.431 c-12.854,14.494-30.582,23.111-49.916,24.271c-19.332,1.192-37.966-5.281-52.458-18.134C70,171.033,67.248,125.106,93.782,95.19 c12.854-14.493,30.582-23.11,49.917-24.269c1.482-0.091,2.961-0.133,4.438-0.133c17.732,0,34.643,6.4,48.023,18.269 c14.492,12.854,23.109,30.582,24.27,49.917C221.585,158.311,215.143,176.94,202.291,191.431z"></path> </g> </svg> 