<?xml version="1.0" encoding="UTF-8"?> <!-- Generator: Adobe Illustrator 16.2.0, SVG Export Plug-In . SVG Version: 6.00 Build 0) --> <svg xmlns="http://www.w3.org/2000/svg" xmlns:xlink="http://www.w3.org/1999/xlink" id="Layer_1" x="0px" y="0px" width="252.281px" height="345.83px" viewBox="0 0 252.281 345.83" xml:space="preserve"> <path fill="#FFFFFF" d="M126.14,46.775C56.476,46.775,0,103.25,0,172.915c0,69.664,56.476,126.141,126.14,126.141 c69.664,0,126.141-56.477,126.141-126.141C252.281,103.25,195.804,46.775,126.14,46.775z M163.201,119.077 c-5.996,0-12.03,0-18.023,0c-3.794-0.246-7.707,2.65-8.4,6.444c-0.082,6.566-0.041,13.13-0.041,19.696 c8.807,0.041,17.617,0,26.426,0.041c-0.652,9.5-1.834,18.962-3.221,28.343c-7.789,0.082-15.578,0-23.367,0.041 c-0.082,28.016,0.041,55.989-0.041,84.008c-11.582,0.041-23.121-0.041-34.704,0.041c-0.205-28.016,0-56.031-0.123-84.049 c-5.627-0.041-11.296,0.041-16.924-0.041c0.041-9.421,0-18.84,0-28.22c5.628-0.082,11.296,0,16.924-0.041 c0.164-9.135-0.164-18.31,0.164-27.445c0.611-7.301,3.343-14.599,8.769-19.615c6.566-6.239,15.862-8.359,24.671-8.605 c9.299-0.082,18.598-0.041,27.893-0.041C163.242,99.462,163.242,109.249,163.201,119.077z"></path> </svg> 